<svg version="1.0" xmlns="http://www.w3.org/2000/svg"
 viewBox="0 0 1015.000000 1024.000000"
 preserveAspectRatio="xMidYMid meet">

<g transform="translate(0.000000,1024.000000) scale(0.100000,-0.100000)"
fill="#000000" stroke="none">
<path d="M4835 7609 c-538 -50 -1005 -254 -1416 -621 -463 -414 -743 -936
-825 -1538 -23 -170 -23 -510 0 -680 78 -573 333 -1070 758 -1476 200 -191
394 -327 633 -444 243 -120 466 -187 755 -227 136 -18 517 -22 640 -6 l65 8
-80 29 c-194 68 -340 161 -496 316 -206 204 -321 418 -375 696 -26 131 -23
367 5 501 55 265 174 480 376 679 266 263 599 388 984 371 265 -12 481 -86
693 -237 105 -75 264 -237 336 -343 145 -211 220 -457 223 -730 l2 -102 9 70
c14 104 4 482 -16 590 -67 365 -207 664 -444 946 -349 414 -804 665 -1317 724
-373 43 -734 -7 -1064 -146 -63 -27 -117 -47 -119 -45 -6 7 125 131 208 199
449 364 999 511 1609 431 601 -79 1155 -455 1483 -1006 33 -56 71 -125 84
-153 l23 -50 0 60 c1 86 -52 338 -106 498 -53 162 -165 393 -253 527 -263 398
-632 729 -1035 925 -391 191 -880 276 -1340 234z"/>
<path d="M7101 3764 c0 -11 3 -14 6 -6 3 7 2 16 -1 19 -3 4 -6 -2 -5 -13z"/>
</g>
</svg>
